<svg width="50" height="50" viewBox="0 0 50 50" fill="none" xmlns="http://www.w3.org/2000/svg">
<path d="M43.6979 18.802L31.0938 6.19788L31.9792 5.31247C32.7778 4.51385 33.7674 4.12288 34.9479 4.13955C36.1285 4.15622 37.1181 4.56455 37.9167 5.36455L44.6354 12.0833C45.434 12.8819 45.8333 13.8632 45.8333 15.027C45.8333 16.1909 45.434 17.1715 44.6354 17.9687L43.6979 18.802ZM18.0208 44.5833C17.2222 45.3819 16.241 45.7812 15.0771 45.7812C13.9132 45.7812 12.9333 45.3819 12.1375 44.5833L5.41667 37.8645C4.61806 37.0659 4.21875 36.0847 4.21875 34.9208C4.21875 33.7569 4.61806 32.7764 5.41667 31.9791L6.25 31.1458L18.8542 43.75L18.0208 44.5833ZM25.5729 43.125C25.1563 43.5416 24.6701 43.75 24.1146 43.75C23.559 43.75 23.0729 43.5416 22.6563 43.125L6.875 27.3437C6.45833 26.927 6.25 26.4409 6.25 25.8854C6.25 25.3298 6.45833 24.8437 6.875 24.427L9.84375 21.4062C10.2604 20.9895 10.7556 20.7812 11.3292 20.7812C11.9028 20.7812 12.3972 20.9895 12.8125 21.4062L16.0938 24.6875L24.7396 16.0416L21.4583 12.7604C21.0417 12.3437 20.8333 11.8576 20.8333 11.302C20.8333 10.7465 21.0417 10.2604 21.4583 9.84372L24.4271 6.82288C24.8438 6.40622 25.3389 6.19788 25.9125 6.19788C26.4861 6.19788 26.9806 6.40622 27.3958 6.82288L43.1771 22.6041C43.5938 23.0208 43.8021 23.5159 43.8021 24.0895C43.8021 24.6632 43.5938 25.1576 43.1771 25.5729L40.1563 28.5416C39.7396 28.9583 39.2535 29.1666 38.6979 29.1666C38.1424 29.1666 37.6563 28.9583 37.2396 28.5416L33.9583 25.2604L25.3125 33.9062L28.5938 37.1875C29.0104 37.6041 29.2188 38.0986 29.2188 38.6708C29.2188 39.243 29.0104 39.7382 28.5938 40.1562L25.5729 43.125Z" fill="white"/>
</svg>
