<svg width="40" height="50" viewBox="0 0 40 50" fill="none" xmlns="http://www.w3.org/2000/svg">
<path d="M26.4689 16.0714C27.8862 16.0714 29.2717 15.6001 30.4502 14.7172C31.6287 13.8342 32.5472 12.5792 33.0896 11.1109C33.6319 9.64252 33.7739 8.0268 33.4974 6.46803C33.2208 4.90925 32.5383 3.47742 31.5361 2.35361C30.5339 1.22979 29.257 0.464467 27.8669 0.154408C26.4769 -0.155652 25.036 0.00348171 23.7265 0.611686C22.4171 1.21989 21.2979 2.24985 20.5105 3.57131C19.723 4.89278 19.3028 6.4464 19.3028 8.03572C19.3028 10.1669 20.0578 12.2108 21.4017 13.7178C22.7456 15.2248 24.5683 16.0714 26.4689 16.0714ZM26.4689 5.35715C26.9413 5.35715 27.4032 5.51424 27.796 5.80857C28.1888 6.10289 28.495 6.52123 28.6758 7.01067C28.8566 7.50012 28.9039 8.03869 28.8117 8.55828C28.7196 9.07787 28.492 9.55515 28.158 9.92975C27.8239 10.3044 27.3983 10.5595 26.9349 10.6628C26.4716 10.7662 25.9913 10.7131 25.5548 10.5104C25.1183 10.3077 24.7452 9.96434 24.4828 9.52385C24.2203 9.08336 24.0802 8.56549 24.0802 8.03572C24.0802 7.32532 24.3319 6.64401 24.7798 6.14168C25.2278 5.63935 25.8354 5.35715 26.4689 5.35715ZM38.731 29.5089C38.4125 29.6875 36.9195 30.4688 34.3716 30.4688C33.9929 30.4754 33.6142 30.4605 33.2369 30.4241C30.1515 30.1563 26.9068 28.8393 23.5626 26.5179C23.1247 27.567 22.6071 28.75 21.9901 29.9554C26.7078 31.875 33.635 36.5625 33.635 47.3214C33.635 48.0318 33.3834 48.7131 32.9354 49.2155C32.4874 49.7178 31.8799 50 31.2463 50C30.6128 50 30.0052 49.7178 29.5573 49.2155C29.1093 48.7131 28.8576 48.0318 28.8576 47.3214C28.8576 43.1473 27.4642 39.933 24.6177 37.5223C22.8062 35.9598 20.736 35.0446 19.1634 34.5312C18.7852 35.0446 18.3871 35.558 17.9492 36.0714C14.1073 40.6027 9.4095 42.9464 4.27376 42.9464C3.62871 42.9532 2.98389 42.916 2.34288 42.8348C2.0129 42.8277 1.68781 42.744 1.38812 42.589C1.08843 42.434 0.820641 42.211 0.601641 41.9341C0.382642 41.6572 0.217186 41.3325 0.11571 40.9803C0.0142344 40.6281 -0.0210601 40.2562 0.0120535 39.888C0.0451671 39.5198 0.14597 39.1632 0.308104 38.8409C0.470238 38.5185 0.690186 38.2374 0.954073 38.0151C1.21796 37.7928 1.52006 37.6343 1.84132 37.5495C2.16258 37.4646 2.49603 37.4554 2.82063 37.5223C7.25966 38.0134 11.1811 36.2723 14.5054 32.3661C15.1395 31.6118 15.7312 30.8142 16.2771 29.9777C17.6034 27.9144 18.7059 25.6814 19.5615 23.3259C16.496 20.8259 13.5698 19.8214 10.8228 20.3125C9.56001 20.5308 8.36781 21.107 7.35918 21.9866H7.37909C6.9383 22.439 6.36423 22.6933 5.76671 22.7009C5.2832 22.7032 4.81044 22.5409 4.41094 22.2355C4.01145 21.93 3.70401 21.4959 3.52929 20.9903C3.35456 20.4848 3.32076 19.9316 3.43236 19.4041C3.54397 18.8765 3.79571 18.3994 4.15433 18.0357C4.35339 17.8125 6.34398 15.8482 9.68818 15.1339C15.1822 13.9509 20.0393 16.9643 23.1645 19.6875L23.8413 20.2679H23.8612C31.9231 27.0089 36.5214 24.7768 36.5612 24.7545H36.5015C36.8496 24.5671 37.2302 24.468 37.6162 24.4643C38.149 24.4655 38.666 24.6664 39.0852 25.035C39.5045 25.4036 39.8018 25.9188 39.9299 26.4986C40.058 27.0784 40.0096 27.6897 39.7924 28.2351C39.5751 28.7806 39.2015 29.2289 38.731 29.5089Z" fill="white"/>
</svg>
