<svg width="50" height="50" viewBox="0 0 50 50" fill="none" xmlns="http://www.w3.org/2000/svg">
<path d="M27.5001 4.16664C23.3334 3.95831 19.1667 5.62497 16.0417 8.54164C13.1251 11.4583 11.4584 15.4166 11.4584 19.7916L7.70841 26.0416C7.50008 26.4583 7.29175 26.6666 7.29175 27.0833C7.29175 27.2916 7.29175 27.5 7.50008 27.7083L10.4167 35.8333V36.0416C11.4584 38.125 13.5417 39.5833 16.0417 39.5833H17.7084V43.75C17.7084 45 18.5417 45.8333 19.7917 45.8333C21.0417 45.8333 21.8751 45 21.8751 43.75V39.5833H26.0417C26.2501 39.5833 26.4584 39.5833 26.6667 39.375L34.3751 36.6666V36.875L36.4584 44.1666C36.6667 45 37.5001 45.625 38.5417 45.625H39.1667C40.2084 45.2083 40.8334 44.1666 40.6251 43.125L38.7501 36.4583L42.7084 21.25V20.4166C42.7084 11.875 36.0417 4.58331 27.5001 4.16664ZM35.4167 32.0833L28.1251 34.5833V28.5416L37.0834 25.625L35.4167 32.0833ZM38.3334 20.8333H37.7084L25.6251 25H13.1251L15.4167 21.4583C15.6251 21.0416 15.8334 20.625 15.6251 20.2083V19.7916C15.6251 13.5416 20.8334 8.33331 27.0834 8.33331H27.5001C33.7501 8.74997 38.7501 13.9583 38.5417 20.4166L38.3334 20.8333Z" fill="white"/>
</svg>
